# xmcd CD database file generated by Grip 3.2.0
# 
# Track frame offsets:
#       150
#       31149
#       51760
#       58555
#       63520
#       73726
#       80640
#       90900
#       104557
#       114353
#       127685
#       140266
#       151876
#       164139
#       177253
#       193090
#       204827
#       220048
#       236935
#       249144
#       261264
#       273552
#       284772
#       300348
#       311527
#       323423
#       335289
#       347445
# 
# Disc length: 4795 seconds
# 
# Revision: 1
# Processed by: cddbd v1.5.2PL0 Copyright (c) Steve Scherf et al.
# Submitted via: Grip 3.2.0
# 
DISCID=8c12b91c
DTITLE=Dave Brubeck - time was - Playland-At-The-Beach -
DYEAR=1900
DGENRE=Jazz
TTITLE0=How High The Moon
TTITLE1=Serenade's Suite
TTITLE2=Playland-At-The-Beach
TTITLE3=Prisoner's Song
TTITLE4=Shizophrenic Scherzo
TTITLE5=Rondo
TTITLE6=I Hear A Rhapsody
TTITLE7=You Go To My Head
TTITLE8=Laura
TTITLE9=Blue Moon
TTITLE10=Tea For Two
TTITLE11=Indiana
TTITLE12=Laura
TTITLE13=You Stepped Out Of A Dream
TTITLE14=Lullaby In Rhythm
TTITLE15=Singing In The Rain
TTITLE16=I'll Remember April
TTITLE17=Body And Soul
TTITLE18=Let's Fall In Love
TTITLE19='s Wonderful
TTITLE20=Sweet Georgia Brown
TTITLE21=Undecided
TTITLE22=September Song
TTITLE23=Spring Is Here
TTITLE24=That Old Black Magic
TTITLE25=Love Walked In
TTITLE26=IPCA
TTITLE27=What Is This Thing Called Love ?
EXTD=
EXTT0=
EXTT1=
EXTT2=
EXTT3=
EXTT4=
EXTT5=
EXTT6=
EXTT7=
EXTT8=
EXTT9=
EXTT10=
EXTT11=
EXTT12=
EXTT13=
EXTT14=
EXTT15=
EXTT16=
EXTT17=
EXTT18=
EXTT19=
EXTT20=
EXTT21=
EXTT22=
EXTT23=
EXTT24=
EXTT25=
EXTT26=
EXTT27=
PLAYORDER=
